name analog
datacolumns 19
datarows 51
range 0.1565 0.1815
endheader
time	ground_force_vx	ground_force_vy	ground_force_vz	ground_force_px	ground_force_py	ground_force_pz	l_ground_force_vx	l_ground_force_vy	l_ground_force_vz	l_ground_force_px	l_ground_force_py	l_ground_force_pz	ground_torque_x	ground_torque_y	ground_torque_z	l_ground_torque_x	l_ground_torque_y	l_ground_torque_z
0.1565	-0.0	-0.0	-0.0	4.559530258178711	33.32498550415039	-316.41046142578125	-3.061379909515381	-35.495975494384766	-302.4022521972656	-0.0	-0.0	-0.0	-0.0	-0.0	-0.0	58048.03515625	-27183.390625	715.2888793945312
0.157	-0.0	-0.0	-0.0	3.799618721008301	33.80678939819336	-316.5139465332031	-2.9898078441619877	-35.76069259643555	-303.9414978027344	-0.0	-0.0	-0.0	-0.0	-0.0	-0.0	58117.2734375	-27166.4609375	650.2134399414062
0.1575	-0.0	-0.0	-0.0	3.7569990158081055	33.632606506347656	-316.61767578125	-2.75003433227539	-35.98283386230469	-303.2439270019531	-0.0	-0.0	-0.0	-0.0	-0.0	-0.0	57955.765625	-27019.65234375	676.7200927734375
0.158	-0.0	-0.0	-0.0	3.736612558364868	33.57585906982422	-314.8918151855469	-3.167290210723877	-36.13334274291992	-302.3266906738281	-0.0	-0.0	-0.0	-0.0	-0.0	-0.0	57997.52734375	-27008.40625	629.1019897460938
0.1585	-0.0	-0.0	-0.0	3.111888885498047	33.26658248901367	-314.9950256347656	-3.042381763458252	-36.44073486328125	-303.4523620605469	-0.0	-0.0	-0.0	-0.0	-0.0	-0.0	57790.27734375	-27031.49609375	635.7889404296875
0.159	-0.0	-0.0	-0.0	3.04370379447937	34.047813415527344	-315.285888671875	-2.9899742603302	-36.35237121582031	-301.62713623046875	-0.0	-0.0	-0.0	-0.0	-0.0	-0.0	58048.125	-26988.109375	686.4484252929688
0.1595	-0.0	-0.0	-0.0	2.7132227420806885	33.80191802978516	-315.1400451660156	-3.266517400741577	-36.372825622558594	-302.42742919921875	-0.0	-0.0	-0.0	-0.0	-0.0	-0.0	57890.55078125	-27037.55078125	653.2404174804688
0.16	-0.0	-0.0	-0.0	2.39349102973938	33.89134979248047	-314.8900146484375	-2.82825231552124	-36.7418212890625	-302.4266357421875	-0.0	-0.0	-0.0	-0.0	-0.0	-0.0	57973.0390625	-27030.412109375	676.1387329101562
0.1605	-0.0	-0.0	-0.0	2.1039981842041016	34.189056396484375	-314.0802307128906	-3.000676393508911	-37.00679016113281	-303.0026550292969	-0.0	-0.0	-0.0	-0.0	-0.0	-0.0	58158.953125	-27197.220703125	798.1062622070312
0.161	-0.0	-0.0	-0.0	1.9886261224746704	33.984657287597656	-313.9325256347656	-2.7392256259918213	-36.93355941772461	-302.5697021484375	-0.0	-0.0	-0.0	-0.0	-0.0	-0.0	58162.703125	-27001.267578125	738.9549560546875
0.1615	-0.0	-0.0	-0.0	2.561133623123169	34.16289520263672	-313.7265930175781	-2.4839019775390625	-37.00679016113281	-302.17755126953125	-0.0	-0.0	-0.0	-0.0	-0.0	-0.0	58034.5078125	-27415.810546875	844.0533447265625
0.162	-0.0	-0.0	-0.0	1.7354202270507812	34.22913360595703	-314.7859802246094	-2.7869462966918945	-37.03257369995117	-302.26336669921875	-0.0	-0.0	-0.0	-0.0	-0.0	-0.0	57783.140625	-27391.533203125	827.8652954101562
0.1625	-0.0	-0.0	-0.0	2.0776846408843994	34.404335021972656	-314.5347595214844	-2.4951632022857666	-37.234840393066406	-302.7144775390625	-0.0	-0.0	-0.0	-0.0	-0.0	-0.0	58190.74609375	-27251.826171875	802.0953369140625
0.163	-0.0	-0.0	-0.0	2.0917305946350098	34.58259582519531	-313.67950439453125	-2.621065616607666	-37.172149658203125	-302.36529541015625	-0.0	-0.0	-0.0	-0.0	-0.0	-0.0	57867.71484375	-27227.1328125	759.9591674804688
0.1635	-0.0	-0.0	-0.0	2.166802167892456	35.07970428466797	-315.4370422363281	-2.75003433227539	-37.15782165527344	-302.9065246582031	-0.0	-0.0	-0.0	-0.0	-0.0	-0.0	57875.68359375	-27515.55078125	912.049560546875
0.164	-0.0	-0.0	-0.0	2.396572589874268	34.82431411743164	-314.13250732421875	-2.659026622772217	-37.65060043334961	-303.0176086425781	-0.0	-0.0	-0.0	-0.0	-0.0	-0.0	58156.6328125	-27294.66796875	767.627685546875
0.1645	-0.0	-0.0	-0.0	2.3451497554779053	34.59608459472656	-313.9287414550781	-2.635672807693481	-37.39731979370117	-302.56719970703125	-0.0	-0.0	-0.0	-0.0	-0.0	-0.0	58284.734375	-27327.130859375	1001.1358032226562
0.165	-0.0	-0.0	-0.0	2.587104797363281	34.443058013916016	-314.885986328125	-2.45833420753479	-37.625038146972656	-303.8153076171875	-0.0	-0.0	-0.0	-0.0	-0.0	-0.0	58138.15625	-27408.607421875	866.0513305664062
0.1655	-0.0	-0.0	-0.0	2.918391227722168	34.315208435058594	-313.4729919433594	-2.3185994625091557	-37.7012939453125	-303.76190185546875	-0.0	-0.0	-0.0	-0.0	-0.0	-0.0	58557.35546875	-27399.947265625	1009.9419555664062
0.166	-0.0	-0.0	-0.0	2.9058046340942383	34.53157424926758	-314.0268859863281	-1.8252336978912356	-37.5875129699707	-305.05810546875	-0.0	-0.0	-0.0	-0.0	-0.0	-0.0	58683.1015625	-27721.412109375	993.6578369140624
0.1665	-0.0	-0.0	-0.0	3.1606767177581787	34.519161224365234	-311.9586486816406	-1.7617831230163574	-37.44839477539063	-305.1073913574219	-0.0	-0.0	-0.0	-0.0	-0.0	-0.0	58873.265625	-27709.90234375	1002.157470703125
0.167	-0.0	-0.0	-0.0	2.91808819770813	34.09905242919922	-312.6649169921875	-1.7108932733535769	-37.309818267822266	-306.4552001953125	-0.0	-0.0	-0.0	-0.0	-0.0	-0.0	58659.671875	-27856.38671875	1082.6807861328125
0.1675	-0.0	-0.0	-0.0	3.849192380905152	34.42966842651367	-313.22222900390625	-1.4829237461090088	-37.322174072265625	-306.1564636230469	-0.0	-0.0	-0.0	-0.0	-0.0	-0.0	58763.8515625	-27885.33984375	1192.96240234375
0.168	-0.0	-0.0	-0.0	3.4659178256988525	34.30192565917969	-313.8241577148437	-1.5080833435058594	-37.47356796264648	-305.3086853027344	-0.0	-0.0	-0.0	-0.0	-0.0	-0.0	58620.7109375	-27795.58984375	1014.8950805664062
0.1685	-0.0	-0.0	-0.0	3.5044949054718018	34.53207015991211	-314.1771850585937	-0.9887450337409972	-37.20858383178711	-305.456787109375	-0.0	-0.0	-0.0	-0.0	-0.0	-0.0	58729.00390625	-27924.798828125	1193.3017578125
0.169	-0.0	-0.0	-0.0	3.3007888793945312	34.40232849121094	-313.0092468261719	-0.9254615306854248	-36.9566535949707	-303.5591125488281	-0.0	-0.0	-0.0	-0.0	-0.0	-0.0	58544.3984375	-27972.19140625	1180.5302734375
0.1695	-0.0	-0.0	-0.0	3.3396694660186768	34.35178756713867	-314.4387512207031	-0.507122814655304	-36.94491958618164	-305.0595703125	-0.0	-0.0	-0.0	-0.0	-0.0	-0.0	58553.78125	-27956.595703125	1354.8011474609375
0.17	-0.0	-0.0	-0.0	2.827167510986328	34.79975128173828	-314.683349609375	-0.2543661892414093	-36.99507141113281	-305.7579650878906	-0.0	-0.0	-0.0	-0.0	-0.0	-0.0	58736.421875	-27908.48828125	1295.64013671875
0.1705	-0.0	-0.0	-0.0	3.125378131866455	34.84999084472656	-314.9372863769531	0.3684449195861816	-36.95693588256836	-304.8628845214844	-0.0	-0.0	-0.0	-0.0	-0.0	-0.0	58875.95703125	-28149.978515625	1380.5364990234375
0.171	-0.0	-0.0	-0.0	3.5183756351470947	34.60759735107422	-314.3172302246094	0.7346863150596619	-36.91846466064453	-305.9107971191406	-0.0	-0.0	-0.0	-0.0	-0.0	-0.0	58817.09375	-27969.8671875	1457.627685546875
0.1715	-0.0	-0.0	-0.0	3.5578067302703857	34.77518844604492	-314.979736328125	0.7456461787223816	-37.04545974731445	-305.6058044433594	-0.0	-0.0	-0.0	-0.0	-0.0	-0.0	58530.9765625	-28361.955078125	1436.321044921875
0.17200000000000001	-0.0	-0.0	-0.0	3.261411428451538	34.20117950439453	-315.5455627441406	0.8622130751609802	-36.94325256347656	-304.8218078613281	-0.0	-0.0	-0.0	-0.0	-0.0	-0.0	58873.34765625	-28311.919921875	1555.09912109375
0.17250000000000001	-0.0	-0.0	-0.0	3.717785120010376	34.05817413330078	-315.38970947265625	1.078622579574585	-36.7418212890625	-304.8517761230469	-0.0	-0.0	-0.0	-0.0	-0.0	-0.0	58693.140625	-28241.73046875	1622.9569091796875
0.17300000000000001	-0.0	-0.0	-0.0	3.8608627319335938	34.32997131347656	-316.154541015625	1.41937255859375	-36.81586456298828	-305.81573486328125	-0.0	-0.0	-0.0	-0.0	-0.0	-0.0	58895.97265625	-28415.806640625	1567.345947265625
0.17350000000000002	-0.0	-0.0	-0.0	4.078911781311035	34.354835510253906	-316.23321533203125	1.4544172286987305	-36.526145935058594	-305.10162353515625	-0.0	-0.0	-0.0	-0.0	-0.0	-0.0	58699.8125	-28339.72265625	1712.27099609375
0.17400000000000002	-0.0	-0.0	-0.0	4.297070503234863	34.1766242980957	-316.2532653808594	1.5473390817642212	-36.324832916259766	-305.0040283203125	-0.0	-0.0	-0.0	-0.0	-0.0	-0.0	58728.6171875	-28325.14453125	1649.649658203125
0.17450000000000002	-0.0	-0.0	-0.0	4.2327752113342285	34.48402404785156	-317.0205383300781	1.6362156867980957	-36.30021667480469	-303.89776611328125	-0.0	-0.0	-0.0	-0.0	-0.0	-0.0	58715.7265625	-28204.220703125	1588.8603515625
0.17500000000000002	-0.0	-0.0	-0.0	3.8207695484161377	34.671730041503906	-317.1926574707031	1.5967941284179688	-36.26092147827149	-303.9557189941406	-0.0	-0.0	-0.0	-0.0	-0.0	-0.0	58409.12109375	-28102.8828125	1602.0172119140625
0.17550000000000002	-0.0	-0.0	-0.0	4.119178295135498	34.047813415527344	-315.7788391113281	1.517581582069397	-36.16300201416016	-301.8229064941406	-0.0	-0.0	-0.0	-0.0	-0.0	-0.0	58479.203125	-28185.396484375	1649.904052734375
0.176	-0.0	-0.0	-0.0	3.940908193588257	34.25944519042969	-316.96142578125	1.5722920894622805	-36.15385055541992	-302.5216064453125	-0.0	-0.0	-0.0	-0.0	-0.0	-0.0	58178.62109375	-28087.978515625	1690.978515625
0.1765	-0.0	-0.0	-0.0	3.7468414306640634	34.68742370605469	-315.74285888671875	1.8721373081207275	-35.672794342041016	-303.1838073730469	-0.0	-0.0	-0.0	-0.0	-0.0	-0.0	58254.9609375	-28223.5703125	1608.4747314453125
0.177	-0.0	-0.0	-0.0	4.047346591949463	34.769309997558594	-314.9101257324219	2.667962551116944	-36.08160018920898	-302.04229736328125	-0.0	-0.0	-0.0	-0.0	-0.0	-0.0	58228.83203125	-28179.80078125	1587.181640625
0.1775	-0.0	-0.0	-0.0	3.5279691219329834	34.05611801147461	-314.8763732910156	2.7831268310546875	-35.472373962402344	-300.42779541015625	-0.0	-0.0	-0.0	-0.0	-0.0	-0.0	58157.6796875	-28242.23828125	1929.2779541015625
0.178	-0.0	-0.0	-0.0	3.633274793624878	34.33133316040039	-314.1058959960937	2.96749210357666	-35.49671936035156	-299.57208251953125	-0.0	-0.0	-0.0	-0.0	-0.0	-0.0	58199.8984375	-28306.423828125	1856.6793212890625
0.1785	-0.0	-0.0	-0.0	3.884597539901733	34.12907028198242	-313.4315795898437	3.233790159225464	-35.59364318847656	-299.57208251953125	-0.0	-0.0	-0.0	-0.0	-0.0	-0.0	58235.484375	-28275.84765625	1902.6458740234373
0.179	-0.0	-0.0	-0.0	4.095950126647949	34.68821334838867	-313.3012084960937	3.556328296661377	-34.89519119262695	-299.5400085449219	-0.0	-0.0	-0.0	-0.0	-0.0	-0.0	58089.08984375	-28258.0703125	1892.164306640625
0.1795	-0.0	-0.0	-0.0	3.7468414306640634	34.71256256103516	-315.455810546875	3.5967342853546143	-34.822792053222656	-299.6360778808594	-0.0	-0.0	-0.0	-0.0	-0.0	-0.0	57917.26953125	-28493.76171875	2054.043701171875
0.18	-0.0	-0.0	-0.0	3.7951016426086426	35.182403564453125	-315.5517883300781	3.556170701980591	-34.49346923828125	-298.7144775390625	-0.0	-0.0	-0.0	-0.0	-0.0	-0.0	57754.3046875	-28290.05078125	2097.32666015625
0.1805	-0.0	-0.0	-0.0	3.5033183097839355	35.70033264160156	-315.45654296875	3.6688849925994873	-34.34077072143555	-298.2402038574219	-0.0	-0.0	-0.0	-0.0	-0.0	-0.0	57625.734375	-28400.28125	2137.75341796875
0.181	-0.0	-0.0	-0.0	3.376220226287842	35.58015060424805	-315.81072998046875	4.210102081298828	-34.357139587402344	-297.9208374023437	-0.0	-0.0	-0.0	-0.0	-0.0	-0.0	57715.9921875	-28460.091796875	2029.926025390625
0.1815	-0.0	-0.0	-0.0	2.4874868392944336	35.48069381713867	-315.97412109375	4.080696105957031	-34.09217071533203	-297.4110717773437	-0.0	-0.0	-0.0	-0.0	-0.0	-0.0	57581.421875	-28431.193359375	2052.296875
